
<svg xmlns="http://www.w3.org/2000/svg" width="64" height="64" viewBox="0 0 64 64" fill="none">
  <rect width="64" height="64" rx="12" fill="#4a8c89"/>
  <path d="M16 32C16 23.163 23.163 16 32 16C40.837 16 48 23.163 48 32C48 40.837 40.837 48 32 48C23.163 48 16 40.837 16 32Z" fill="white"/>
  <path d="M28 24C28 22.895 28.895 22 30 22H34C35.105 22 36 22.895 36 24V28C36 29.105 35.105 30 34 30H30C28.895 30 28 29.105 28 28V24Z" fill="#4a8c89"/>
  <path d="M28 34C28 32.895 28.895 32 30 32H34C35.105 32 36 32.895 36 34V38C36 39.105 35.105 40 34 40H30C28.895 40 28 39.105 28 38V34Z" fill="#4a8c89"/>
</svg>
